<svg width="103" height="40" viewBox="0 0 103 40" fill="none" xmlns="http://www.w3.org/2000/svg">
<path fill-rule="evenodd" clip-rule="evenodd" d="M0.0437601 8.60079L4.22481 6.17809L12.579 1.33666C15.6541 -0.445554 20.6427 -0.445554 23.7178 1.33666C25.0346 2.10047 25.7865 3.06319 25.9774 4.05773C27.6235 4.13336 29.2311 4.58083 30.6796 5.36654C33.7547 7.14876 33.7547 10.0369 30.6796 11.8151L18.1444 19.0992L15.8053 17.7466L4.22481 11.0235L0.0437601 8.60079ZM36.2451 29.4822V11.3417L18.1245 21.8043L0 11.3417V29.4822L18.1205 39.9169L36.2371 29.4822H36.2451ZM15.4273 21.9953C15.6872 22.1843 15.8826 22.4487 15.9872 22.7525C16.0918 23.0564 16.1005 23.385 16.0121 23.6939C15.9866 23.8273 15.9282 23.9521 15.8422 24.0571C15.7562 24.1621 15.6454 24.244 15.5198 24.2954C15.3941 24.3468 15.2576 24.366 15.1227 24.3512C14.9878 24.3365 14.8587 24.2884 14.7471 24.2111C14.4872 24.0221 14.2917 23.7577 14.1871 23.4539C14.0825 23.15 14.0739 22.8214 14.1623 22.5124C14.1875 22.3785 14.2459 22.253 14.3321 22.1474C14.4184 22.0419 14.5297 21.9596 14.6559 21.9082C14.7821 21.8568 14.9192 21.8378 15.0547 21.853C15.1902 21.8682 15.3196 21.9171 15.4313 21.9953H15.4273ZM12.7063 20.3841C12.9661 20.5732 13.1616 20.8375 13.2662 21.1414C13.3708 21.4452 13.3795 21.7738 13.291 22.0828C13.2655 22.2161 13.2071 22.3409 13.1211 22.4459C13.0352 22.551 12.9243 22.6329 12.7987 22.6842C12.6731 22.7356 12.5366 22.7548 12.4017 22.7401C12.2667 22.7254 12.1376 22.6772 12.026 22.6C11.7661 22.4109 11.5707 22.1466 11.4661 21.8427C11.3615 21.5389 11.3528 21.2102 11.4412 20.9013C11.4667 20.768 11.5251 20.6431 11.6111 20.5381C11.6971 20.4331 11.8079 20.3512 11.9336 20.2998C12.0592 20.2485 12.1957 20.2293 12.3306 20.244C12.4655 20.2587 12.5947 20.3069 12.7063 20.3841ZM6.23776 16.5492C6.12598 16.4692 5.99579 16.4187 5.85929 16.4025C5.72279 16.3863 5.5844 16.4048 5.457 16.4564C5.32959 16.508 5.21729 16.591 5.13053 16.6976C5.04378 16.8043 4.98538 16.9311 4.96077 17.0663C4.87236 17.3753 4.88105 17.7039 4.98565 18.0078C5.09025 18.3116 5.28571 18.576 5.54556 18.765C5.65717 18.8422 5.78629 18.8904 5.92122 18.9051C6.05615 18.9198 6.19262 18.9007 6.31826 18.8493C6.44389 18.7979 6.55473 18.716 6.6407 18.611C6.72668 18.506 6.78508 18.3811 6.81062 18.2478C6.89903 17.9389 6.89034 17.6102 6.78574 17.3064C6.68114 17.0026 6.48568 16.7382 6.22583 16.5492H6.23776ZM3.60422 14.9857C3.49147 14.9075 3.36078 14.8589 3.22428 14.8446C3.08777 14.8303 2.94985 14.8506 2.82331 14.9038C2.69676 14.9569 2.58568 15.0412 2.50035 15.1487C2.41502 15.2562 2.35821 15.3835 2.33518 15.5188C2.24677 15.8278 2.25546 16.1564 2.36006 16.4603C2.46466 16.7641 2.66013 17.0284 2.91997 17.2175C3.03165 17.2957 3.16112 17.3446 3.29657 17.3598C3.43202 17.375 3.56913 17.356 3.69535 17.3046C3.82157 17.2531 3.93289 17.1709 4.01913 17.0653C4.10537 16.9598 4.16377 16.8343 4.18901 16.7003C4.27742 16.3914 4.26873 16.0627 4.16413 15.7589C4.05953 15.4551 3.86407 15.1907 3.60422 15.0017V14.9857ZM2.48237 28.1734L15.6103 35.7319V26.1087L2.48237 18.5223V28.1734ZM18.1444 14.2498L26.4986 9.40836C27.2663 8.9628 27.2663 8.24276 26.4986 7.81709C26.0673 7.59738 25.5902 7.48285 25.1062 7.48285C24.6222 7.48285 24.1451 7.59738 23.7138 7.81709L15.3597 12.6585L18.1444 14.2498ZM11.1866 10.208L19.5407 5.36654C20.3085 4.92099 20.3085 4.20094 19.5407 3.77528C19.1096 3.55526 18.6324 3.44054 18.1484 3.44054C17.6643 3.44054 17.1872 3.55526 16.756 3.77528L8.40189 8.6167L11.1866 10.208Z" fill="#FF6647"/>
<path d="M56.0788 16.9203C56.0788 15.2105 54.7507 13.8823 53.094 13.8823H49V23.7736H53.491C55.449 23.7736 56.4622 22.3747 56.4759 20.6508C56.4759 19.7747 56.1062 19.0399 55.3258 18.6301C55.7913 18.2345 56.0788 17.5138 56.0788 16.9203ZM53.313 19.8453C54.2989 19.8453 54.3126 21.5268 53.3267 21.5268H51.3687V19.8453H53.313ZM52.9023 16.1432C53.8881 16.1432 53.8881 17.7399 52.916 17.7399H51.3687V16.1432H52.9023Z" fill="white"/>
<path d="M64.4796 23.7736H66.8757V23.4062L62.549 13.7551H61.4947L57.1817 23.4062V23.7736H59.5778L60.1392 22.5301H63.9182L64.4796 23.7736ZM63.1241 20.3682H60.9333L62.015 17.7682L63.1241 20.3682Z" fill="white"/>
<path d="M69.0927 23.7877H68.2164V13.8823C69.0516 13.8823 69.8868 13.8823 70.7221 13.8823V18.729L75.5691 13.8399H76.4591V23.7736C75.6238 23.7736 74.7749 23.7736 73.926 23.7736V18.9127L69.0927 23.7877ZM71.7216 10.7877C71.2424 10.816 70.7768 10.8725 70.3113 10.929C70.3524 12.5116 71.215 13.3453 72.6937 13.3453C74.2136 13.3453 75.0351 12.5116 75.0898 10.929C74.6243 10.8725 74.1588 10.816 73.6796 10.7877C73.5974 11.3812 73.2277 11.5649 72.6663 11.5649C72.0913 11.5649 71.7627 11.3105 71.7216 10.7877Z" fill="white"/>
<path d="M80.2281 16.1432V23.7736C81.036 23.7736 81.8438 23.7736 82.6517 23.7736V16.1432H84.993C84.993 15.3801 84.993 14.6312 84.993 13.8823H77.8731C77.8731 14.6312 77.8731 15.3801 77.8731 16.1432H80.2281Z" fill="white"/>
<path d="M92.4898 13.8823C90.2443 13.8823 88.7244 13.8823 86.5063 13.8823C86.5063 17.1605 86.5063 20.4671 86.5063 23.7736C88.7244 23.7736 90.3675 23.7736 92.613 23.7736C92.613 23.0247 92.613 22.2616 92.613 21.5268C91.1753 21.5268 90.3538 21.5268 88.9435 21.5268C88.9435 20.9334 88.9435 20.3682 88.9435 19.7888H92.2022C92.2022 19.0399 92.2022 18.291 92.2022 17.5421H88.9435V16.1432C90.3538 16.1432 91.0658 16.1432 92.4898 16.1432C92.4898 15.3801 92.4898 14.6171 92.4898 13.8823Z" fill="white"/>
<path d="M97.2219 23.7736V20.0008C97.5368 20.0008 97.8381 20.0008 98.1667 19.9442L100.275 23.7736H103V23.3779L100.398 19.0258C102.302 17.7682 102.247 15.9029 102.247 13.8823C101.398 13.8823 100.563 13.8823 99.7276 13.8823C99.7276 15.7334 99.8508 17.6268 97.3999 17.6268H97.2219V13.8823C96.373 13.8823 95.5515 13.8823 94.7299 13.8823V23.7736C95.5515 23.7736 96.373 23.7736 97.2219 23.7736Z" fill="white"/>
</svg>
